<?xml version="1.0" encoding="utf-8"?>
<!-- Generator: Adobe Illustrator 20.1.0, SVG Export Plug-In . SVG Version: 6.00 Build 0)  -->
<svg version="1.1" id="Capa_1" xmlns="http://www.w3.org/2000/svg" xmlns:xlink="http://www.w3.org/1999/xlink" x="0px" y="0px"
	 viewBox="0 0 72.4 72.4" style="enable-background:new 0 0 72.4 72.4;" xml:space="preserve">
<style type="text/css">
	.st0{fill:#FFFFFF;}
</style>
<path class="st0" d="M72.6,36.1c0-0.8,0-1.6-0.1-2.3l-3.6,5.5l-7.4-11.7l-0.4-14.1l5.2,2.4C61.1,8,52.9,2.3,43.4,0.5l5.2,5.7
	l-13.4,4.4L21,5.9L23.7,2C15.8,5,9.2,10.6,4.9,17.7l4.9-1.9l0.4,14.7L2.7,42L0,37.5c0.3,8.2,3.4,15.7,8.3,21.6l-0.4-5.3l12.6,4.5
	l8.9,10.5L23.3,70c4,1.6,8.4,2.4,13,2.4c5,0,9.7-1,14-2.8L44,68.1l8.2-10.8l13.1-4.4l-0.1,5.1C69.8,51.8,72.6,44.3,72.6,36.1z
	 M45,49.9H26.9l-4.7-16.5l13.4-10.7L50.3,33L45,49.9z"/>
</svg>
