<svg xmlns="http://www.w3.org/2000/svg" xmlns:xlink="http://www.w3.org/1999/xlink" version="1.1" id="Layer_1" x="0" y="0" viewBox="0 0 328.36 191.66" xml:space="preserve" enable-background="new 0 0 328.362 191.655"><rect x="160.18" width="160.17" height="160.17" fill="#FFF"/><rect x="160.18" width="160.17" height="160.17" fill="#FFF"/><rect width="160.18" height="160.17" fill="#010103"/><path d="M106.92 92.85c-4.44 7.75-12.76 12.98-22.33 12.98 -14.21 0-25.74-11.52-25.74-25.74 0-14.22 11.53-25.74 25.74-25.74 9.57 0 17.89 5.23 22.33 12.97l39.75-22.7c-12.33-21.52-35.5-36.04-62.08-36.04 -39.49 0-71.5 32.01-71.5 71.51 0 39.49 32.01 71.51 71.5 71.51 26.58 0 49.75-14.51 62.08-36.03L106.92 92.85z" fill="#FFF"/><polygon points="308.9 148.73 308.9 11.44 263.14 11.44 263.14 68.65 217.38 11.44 171.61 11.44 171.61 148.73 217.38 148.73 217.38 91.53 263.14 148.73 " fill="#010103"/><polygon points="241.18 185.95 243.49 191.23 248.93 191.23 252.67 171.61 246.09 171.61 244.44 180.23 241.18 172.3 237.91 180.23 236.28 171.61 229.7 171.61 233.44 191.23 238.86 191.23 " fill="#FFF"/><polygon points="228.11 171.61 208.49 171.61 208.49 177.33 214.62 177.33 214.62 191.22 221.97 191.22 221.97 177.33 228.11 177.33 " fill="#FFF"/><path d="M263.35 171.21c-5.64 0-10.21 4.58-10.21 10.21 0 5.64 4.57 10.22 10.21 10.22 5.64 0 10.21-4.58 10.21-10.22C273.56 175.78 268.99 171.21 263.35 171.21M263.35 185.1c-2.03 0-3.69-1.65-3.69-3.68 0-2.03 1.66-3.68 3.69-3.68 2.03 0 3.67 1.65 3.67 3.68C267.02 183.45 265.38 185.1 263.35 185.1" fill="#FFF"/><polygon points="186.43 191.22 186.43 171.61 179.89 171.61 179.89 179.79 173.36 171.61 166.82 171.61 166.82 191.22 173.36 191.22 173.36 183.06 179.89 191.22 " fill="#FFF"/><polygon points="206.35 177.34 206.35 171.61 189.19 171.61 189.19 191.22 206.35 191.22 206.35 185.92 195.72 185.92 195.72 183.95 204.71 183.95 204.71 179.05 195.72 179.05 195.72 177.34 " fill="#FFF"/><path d="M294.3 178.56c0-3.56-2.82-6.95-7.35-6.95h-11.45v19.61h6.54v-5.71h2.08l2.87 5.72h7.31l-3.89-6.52C292.69 183.54 294.3 181.23 294.3 178.56M282.04 177.34h4.08c0.91 0 1.65 0.73 1.65 1.64 0 0.9-0.74 1.63-1.64 1.63h-4.08V177.34z" fill="#FFF"/><polygon points="316.15 171.61 307.76 171.61 302.88 178.04 302.88 171.61 296.35 171.61 296.35 191.22 302.88 191.22 302.88 183.92 307.76 191.22 316.15 191.22 308.53 181.05 " fill="#FFF"/><path d="M39.82 191.25h6.95l-6.13-19.62h-9.8l-6.14 19.62h6.98l0.94-3.28h6.26L39.82 191.25zM34.02 183.07l1.72-6.02 1.72 6.02H34.02z" fill="#FFF"/><polygon points="88.82 171.63 69.21 171.63 69.21 177.35 75.33 177.35 75.33 191.25 82.7 191.25 82.7 177.35 88.82 177.35 " fill="#FFF"/><path d="M19.01 183.41c-0.7 1.22-2 2.03-3.51 2.03 -2.23 0-4.05-1.81-4.05-4.04 0-2.24 1.81-4.05 4.05-4.05 1.51 0 2.81 0.82 3.51 2.05l5.33-3.07c-1.76-3.07-5.07-5.15-8.86-5.15 -5.64 0-10.2 4.58-10.2 10.22 0 5.65 4.56 10.22 10.2 10.22 3.8 0 7.11-2.07 8.87-5.15L19.01 183.41z" fill="#FFF"/><path d="M99.85 171.22c-5.64 0-10.2 4.57-10.2 10.22 0 5.64 4.57 10.22 10.21 10.22 5.65 0 10.21-4.58 10.21-10.22C110.06 175.79 105.5 171.22 99.85 171.22M99.85 185.11c-2.03 0-3.68-1.65-3.68-3.68 0-2.03 1.65-3.67 3.68-3.67 2.03 0 3.69 1.64 3.69 3.68C103.54 183.47 101.88 185.11 99.85 185.11" fill="#FFF"/><path d="M121.92 171.22c-5.64 0-10.22 4.57-10.22 10.22 0 5.64 4.58 10.22 10.22 10.22 5.64 0 10.22-4.58 10.22-10.22C132.14 175.79 127.56 171.22 121.92 171.22M121.92 185.11c-2.03 0-3.67-1.65-3.67-3.68 0-2.03 1.64-3.67 3.67-3.67 2.03 0 3.69 1.64 3.69 3.68C125.6 183.47 123.95 185.11 121.92 185.11" fill="#FFF"/><polygon points="153.69 191.25 153.69 171.63 147.15 171.63 147.15 179.81 140.61 171.63 134.08 171.63 134.08 191.25 140.61 191.25 140.61 183.08 147.15 191.25 " fill="#FFF"/><path d="M67.48 178.58c0-3.56-2.82-6.94-7.36-6.94h-4.9 -4.09 -2.46v19.62h6.55v-5.72h2.07l2.88 5.72h7.31l-3.9-6.52C65.85 183.56 67.48 181.25 67.48 178.58M55.22 177.35h4.09c0.9 0 1.62 0.74 1.62 1.64 0 0.9-0.72 1.64-1.62 1.64h-4.08V177.35z" fill="#FFF"/><polygon points="322.56 185.88 322.56 186.83 320.96 186.83 320.96 191.22 319.83 191.22 319.83 186.83 318.24 186.83 318.24 185.88 " fill="#FFF"/><path d="M326.76 185.88h1.6v5.34h-1.04v-3.61c0-0.1 0.02-0.25 0.02-0.44 0-0.19 0-0.33 0-0.44l-1.02 4.49h-1.08l-1-4.49v0.44 0.44 3.61h-1.04v-5.34h1.63l0.97 4.21L326.76 185.88z" fill="#FFF"/></svg>
